<?xml version="1.0" standalone="no"?><!DOCTYPE svg PUBLIC "-//W3C//DTD SVG 1.1//EN" "http://www.w3.org/Graphics/SVG/1.1/DTD/svg11.dtd"><svg t="1745171204763" class="icon" viewBox="0 0 1024 1024" version="1.1" xmlns="http://www.w3.org/2000/svg" p-id="10699" xmlns:xlink="http://www.w3.org/1999/xlink" width="200" height="200"><path d="M496 76c223.12 0 404 180.88 404 404S719.12 884 496 884c-43.936 0-86.976-7.04-127.856-20.656-2.08-0.704-4.352-1.44-6.8-2.176l-3.392-1.04-111.44 58.208c-22.656 11.84-49.76-3.072-52.448-27.968l-0.176-2.512-5.808-146.416-1.888-2.24c-2.208-2.608-4.16-4.944-5.824-7.008l-1.584-1.984A402.368 402.368 0 0 1 92 480C92 256.88 272.88 76 496 76z m0 72c-183.36 0-332 148.64-332 332 0 75.696 25.36 147.44 71.296 205.6 3.04 3.856 8.208 9.936 15.328 18.048 5.44 6.192 8.576 14.08 8.912 22.32l4.032 102.224 73.808-38.528a36 36 0 0 1 23.248-3.472l2.944 0.672a539.52 539.52 0 0 1 27.36 8.16c33.552 11.2 68.896 16.976 105.072 16.976 183.36 0 332-148.64 332-332S679.36 148 496 148z m2.416 182.08a36 36 0 0 1 36 36v256a36 36 0 1 1-72 0V525.6h-88v96.464a36 36 0 1 1-72 0v-256a36 36 0 0 1 72 0v87.536h88V366.08a36 36 0 0 1 36-36z m128 112a36 36 0 0 1 36 36v144a36 36 0 1 1-72 0v-144a36 36 0 0 1 36-36z m1.952-105.84a44 44 0 1 1 0 88 44 44 0 0 1 0-88z" p-id="10700" fill="#707070"></path></svg>